<svg xmlns="http://www.w3.org/2000/svg" version="1.1" xmlns:xlink="http://www.w3.org/1999/xlink" xmlns:svgjs="http://svgjs.dev/svgjs" width="800" height="1500" preserveAspectRatio="none" viewBox="0 0 800 1500"><g mask="url(&quot;#SvgjsMask1254&quot;)" fill="none"><g mask="url(&quot;#SvgjsMask1255&quot;)"><path d="M742.5 742.5L715.5 769.5M769.5 742.5L742.5 769.5L715.5 796.5L688.5 796.5M823.5 742.5L796.5 742.5L769.5 742.5L742.5 742.5L715.5 742.5L688.5 742.5L661.5 742.5" stroke="rgba(199, 23, 136, 1)" stroke-width="4.5"></path><path d="M654.75 742.5 a6.75 6.75 0 1 0 13.5 0 a6.75 6.75 0 1 0 -13.5 0zM708.75 769.5 a6.75 6.75 0 1 0 13.5 0 a6.75 6.75 0 1 0 -13.5 0zM681.75 796.5 a6.75 6.75 0 1 0 13.5 0 a6.75 6.75 0 1 0 -13.5 0z" fill="rgba(199, 23, 136, 1)"></path><path d="M229.5 742.5L202.5 769.5M364.5 742.5L337.5 715.5L310.5 715.5L283.5 715.5M283.5 742.5L256.5 769.5M418.5 742.5L391.5 715.5L364.5 715.5L337.5 688.5M445.5 742.5L418.5 769.5L391.5 769.5L364.5 769.5L337.5 769.5M526.5 742.5L499.5 769.5L472.5 769.5L445.5 769.5M823.5 715.5L796.5 715.5L769.5 715.5L742.5 715.5L715.5 715.5L688.5 715.5L661.5 715.5L634.5 715.5L607.5 715.5L580.5 715.5L553.5 715.5L526.5 742.5L499.5 742.5L472.5 742.5L445.5 742.5L418.5 742.5L391.5 742.5L364.5 742.5L337.5 742.5L310.5 742.5L283.5 742.5L256.5 742.5L229.5 742.5L202.5 742.5" stroke="rgba(67, 90, 66, 1)" stroke-width="4.5"></path><path d="M195.75 742.5 a6.75 6.75 0 1 0 13.5 0 a6.75 6.75 0 1 0 -13.5 0zM195.75 769.5 a6.75 6.75 0 1 0 13.5 0 a6.75 6.75 0 1 0 -13.5 0zM276.75 715.5 a6.75 6.75 0 1 0 13.5 0 a6.75 6.75 0 1 0 -13.5 0zM249.75 769.5 a6.75 6.75 0 1 0 13.5 0 a6.75 6.75 0 1 0 -13.5 0zM330.75 688.5 a6.75 6.75 0 1 0 13.5 0 a6.75 6.75 0 1 0 -13.5 0zM330.75 769.5 a6.75 6.75 0 1 0 13.5 0 a6.75 6.75 0 1 0 -13.5 0zM438.75 769.5 a6.75 6.75 0 1 0 13.5 0 a6.75 6.75 0 1 0 -13.5 0z" fill="rgba(67, 90, 66, 1)"></path><path d="M634.5 688.5L607.5 661.5M688.5 688.5L661.5 661.5L634.5 661.5M526.5 715.5L499.5 688.5L472.5 688.5L445.5 688.5L418.5 688.5M823.5 688.5L796.5 688.5L769.5 688.5L742.5 688.5L715.5 688.5L688.5 688.5L661.5 688.5L634.5 688.5L607.5 688.5L580.5 688.5L553.5 688.5L526.5 715.5L499.5 715.5L472.5 715.5L445.5 715.5" stroke="rgba(167, 154, 16, 1)" stroke-width="4.5"></path><path d="M438.75 715.5 a6.75 6.75 0 1 0 13.5 0 a6.75 6.75 0 1 0 -13.5 0zM600.75 661.5 a6.75 6.75 0 1 0 13.5 0 a6.75 6.75 0 1 0 -13.5 0zM627.75 661.5 a6.75 6.75 0 1 0 13.5 0 a6.75 6.75 0 1 0 -13.5 0zM411.75 688.5 a6.75 6.75 0 1 0 13.5 0 a6.75 6.75 0 1 0 -13.5 0z" fill="rgba(167, 154, 16, 1)"></path><path d="M607.5 904.5L580.5 877.5L553.5 877.5M742.5 877.5L715.5 850.5L688.5 850.5L661.5 850.5L634.5 850.5M796.5 850.5L769.5 850.5M823.5 823.5L796.5 850.5L769.5 877.5L742.5 877.5L715.5 877.5L688.5 877.5L661.5 877.5L634.5 904.5L607.5 904.5L580.5 904.5" stroke="#dd1133" stroke-width="4.5"></path><path d="M573.75 904.5 a6.75 6.75 0 1 0 13.5 0 a6.75 6.75 0 1 0 -13.5 0zM546.75 877.5 a6.75 6.75 0 1 0 13.5 0 a6.75 6.75 0 1 0 -13.5 0zM627.75 850.5 a6.75 6.75 0 1 0 13.5 0 a6.75 6.75 0 1 0 -13.5 0zM762.75 850.5 a6.75 6.75 0 1 0 13.5 0 a6.75 6.75 0 1 0 -13.5 0z" fill="#dd1133"></path><path d="M472.5 661.5L445.5 634.5L418.5 634.5L391.5 634.5L364.5 634.5M715.5 661.5L688.5 661.5M553.5 661.5L526.5 634.5M580.5 661.5L553.5 634.5M823.5 661.5L796.5 661.5L769.5 661.5L742.5 661.5L715.5 661.5L688.5 634.5L661.5 634.5L634.5 634.5L607.5 634.5L580.5 661.5L553.5 661.5L526.5 661.5L499.5 661.5L472.5 661.5L445.5 661.5L418.5 661.5" stroke="rgba(119, 95, 202, 1)" stroke-width="4.5"></path><path d="M411.75 661.5 a6.75 6.75 0 1 0 13.5 0 a6.75 6.75 0 1 0 -13.5 0zM357.75 634.5 a6.75 6.75 0 1 0 13.5 0 a6.75 6.75 0 1 0 -13.5 0zM681.75 661.5 a6.75 6.75 0 1 0 13.5 0 a6.75 6.75 0 1 0 -13.5 0zM519.75 634.5 a6.75 6.75 0 1 0 13.5 0 a6.75 6.75 0 1 0 -13.5 0zM546.75 634.5 a6.75 6.75 0 1 0 13.5 0 a6.75 6.75 0 1 0 -13.5 0z" fill="rgba(119, 95, 202, 1)"></path><path d="M823.5 634.5L796.5 634.5L769.5 634.5L742.5 634.5" stroke="rgba(67, 90, 66, 1)" stroke-width="4.5"></path><path d="M735.75 634.5 a6.75 6.75 0 1 0 13.5 0 a6.75 6.75 0 1 0 -13.5 0z" fill="rgba(67, 90, 66, 1)"></path><path d="M553.5 931.5L526.5 958.5M526.5 931.5L499.5 904.5L472.5 877.5L445.5 877.5L418.5 877.5M715.5 904.5L688.5 904.5L661.5 904.5M823.5 877.5L796.5 877.5L769.5 904.5L742.5 904.5L715.5 904.5L688.5 931.5L661.5 931.5L634.5 931.5L607.5 931.5L580.5 931.5L553.5 931.5L526.5 931.5L499.5 931.5L472.5 904.5" stroke="rgba(167, 154, 16, 1)" stroke-width="4.5"></path><path d="M465.75 904.5 a6.75 6.75 0 1 0 13.5 0 a6.75 6.75 0 1 0 -13.5 0zM519.75 958.5 a6.75 6.75 0 1 0 13.5 0 a6.75 6.75 0 1 0 -13.5 0zM411.75 877.5 a6.75 6.75 0 1 0 13.5 0 a6.75 6.75 0 1 0 -13.5 0zM654.75 904.5 a6.75 6.75 0 1 0 13.5 0 a6.75 6.75 0 1 0 -13.5 0z" fill="rgba(167, 154, 16, 1)"></path><path d="M256.5 580.5L229.5 607.5L202.5 607.5M283.5 580.5L256.5 607.5M337.5 580.5L310.5 607.5L283.5 607.5L256.5 634.5M310.5 580.5L283.5 553.5M526.5 580.5L499.5 553.5M823.5 607.5L796.5 607.5L769.5 607.5L742.5 607.5L715.5 607.5L688.5 607.5L661.5 607.5L634.5 607.5L607.5 607.5L580.5 607.5L553.5 580.5L526.5 580.5L499.5 580.5L472.5 580.5L445.5 580.5L418.5 580.5L391.5 580.5L364.5 580.5L337.5 580.5L310.5 580.5L283.5 580.5L256.5 580.5L229.5 580.5" stroke="rgba(119, 95, 202, 1)" stroke-width="4.5"></path><path d="M222.75 580.5 a6.75 6.75 0 1 0 13.5 0 a6.75 6.75 0 1 0 -13.5 0zM195.75 607.5 a6.75 6.75 0 1 0 13.5 0 a6.75 6.75 0 1 0 -13.5 0zM249.75 607.5 a6.75 6.75 0 1 0 13.5 0 a6.75 6.75 0 1 0 -13.5 0zM249.75 634.5 a6.75 6.75 0 1 0 13.5 0 a6.75 6.75 0 1 0 -13.5 0zM276.75 553.5 a6.75 6.75 0 1 0 13.5 0 a6.75 6.75 0 1 0 -13.5 0zM492.75 553.5 a6.75 6.75 0 1 0 13.5 0 a6.75 6.75 0 1 0 -13.5 0z" fill="rgba(119, 95, 202, 1)"></path><path d="M607.5 958.5L580.5 985.5L553.5 985.5L526.5 985.5M688.5 958.5L661.5 985.5L634.5 985.5L607.5 985.5M742.5 931.5L715.5 931.5M823.5 904.5L796.5 904.5L769.5 931.5L742.5 931.5L715.5 958.5L688.5 958.5L661.5 958.5L634.5 958.5L607.5 958.5L580.5 958.5" stroke="rgba(167, 154, 16, 1)" stroke-width="4.5"></path><path d="M573.75 958.5 a6.75 6.75 0 1 0 13.5 0 a6.75 6.75 0 1 0 -13.5 0zM519.75 985.5 a6.75 6.75 0 1 0 13.5 0 a6.75 6.75 0 1 0 -13.5 0zM600.75 985.5 a6.75 6.75 0 1 0 13.5 0 a6.75 6.75 0 1 0 -13.5 0zM708.75 931.5 a6.75 6.75 0 1 0 13.5 0 a6.75 6.75 0 1 0 -13.5 0z" fill="rgba(167, 154, 16, 1)"></path><path d="M607.5 580.5L580.5 553.5M499.5 526.5L472.5 526.5M688.5 580.5L661.5 553.5M823.5 580.5L796.5 580.5L769.5 580.5L742.5 580.5L715.5 580.5L688.5 580.5L661.5 580.5L634.5 580.5L607.5 580.5L580.5 580.5L553.5 553.5L526.5 526.5L499.5 526.5L472.5 553.5L445.5 553.5" stroke="rgba(67, 90, 66, 1)" stroke-width="4.5"></path><path d="M438.75 553.5 a6.75 6.75 0 1 0 13.5 0 a6.75 6.75 0 1 0 -13.5 0zM573.75 553.5 a6.75 6.75 0 1 0 13.5 0 a6.75 6.75 0 1 0 -13.5 0zM465.75 526.5 a6.75 6.75 0 1 0 13.5 0 a6.75 6.75 0 1 0 -13.5 0zM654.75 553.5 a6.75 6.75 0 1 0 13.5 0 a6.75 6.75 0 1 0 -13.5 0z" fill="rgba(67, 90, 66, 1)"></path><path d="M823.5 931.5L796.5 958.5L769.5 958.5L742.5 958.5L715.5 985.5" stroke="rgba(119, 95, 202, 1)" stroke-width="4.5"></path><path d="M708.75 985.5 a6.75 6.75 0 1 0 13.5 0 a6.75 6.75 0 1 0 -13.5 0z" fill="rgba(119, 95, 202, 1)"></path><path d="M418.5 499.5L391.5 526.5L364.5 526.5L337.5 526.5M634.5 526.5L607.5 553.5M715.5 553.5L688.5 553.5M337.5 499.5L310.5 472.5M310.5 499.5L283.5 526.5L256.5 526.5M823.5 553.5L796.5 553.5L769.5 553.5L742.5 553.5L715.5 553.5L688.5 526.5L661.5 526.5L634.5 526.5L607.5 526.5L580.5 526.5L553.5 526.5L526.5 499.5L499.5 499.5L472.5 499.5L445.5 499.5L418.5 499.5L391.5 499.5L364.5 499.5L337.5 499.5L310.5 499.5L283.5 499.5L256.5 499.5" stroke="rgba(119, 95, 202, 1)" stroke-width="4.5"></path><path d="M249.75 499.5 a6.75 6.75 0 1 0 13.5 0 a6.75 6.75 0 1 0 -13.5 0zM330.75 526.5 a6.75 6.75 0 1 0 13.5 0 a6.75 6.75 0 1 0 -13.5 0zM600.75 553.5 a6.75 6.75 0 1 0 13.5 0 a6.75 6.75 0 1 0 -13.5 0zM681.75 553.5 a6.75 6.75 0 1 0 13.5 0 a6.75 6.75 0 1 0 -13.5 0zM303.75 472.5 a6.75 6.75 0 1 0 13.5 0 a6.75 6.75 0 1 0 -13.5 0zM249.75 526.5 a6.75 6.75 0 1 0 13.5 0 a6.75 6.75 0 1 0 -13.5 0z" fill="rgba(119, 95, 202, 1)"></path><path d="M607.5 499.5L580.5 472.5L553.5 472.5L526.5 445.5L499.5 445.5M823.5 526.5L796.5 526.5L769.5 526.5L742.5 526.5L715.5 526.5L688.5 499.5L661.5 499.5L634.5 499.5L607.5 499.5L580.5 499.5L553.5 499.5" stroke="rgba(67, 90, 66, 1)" stroke-width="4.5"></path><path d="M546.75 499.5 a6.75 6.75 0 1 0 13.5 0 a6.75 6.75 0 1 0 -13.5 0zM492.75 445.5 a6.75 6.75 0 1 0 13.5 0 a6.75 6.75 0 1 0 -13.5 0z" fill="rgba(67, 90, 66, 1)"></path><path d="M823.5 985.5L796.5 985.5L769.5 985.5L742.5 985.5L715.5 1012.5L688.5 1012.5L661.5 1012.5" stroke="rgba(67, 90, 66, 1)" stroke-width="4.5"></path><path d="M654.75 1012.5 a6.75 6.75 0 1 0 13.5 0 a6.75 6.75 0 1 0 -13.5 0z" fill="rgba(67, 90, 66, 1)"></path><path d="M823.5 499.5L796.5 499.5L769.5 499.5L742.5 499.5L715.5 499.5L688.5 472.5L661.5 472.5L634.5 472.5" stroke="rgba(167, 154, 16, 1)" stroke-width="4.5"></path><path d="M627.75 472.5 a6.75 6.75 0 1 0 13.5 0 a6.75 6.75 0 1 0 -13.5 0z" fill="rgba(167, 154, 16, 1)"></path><path d="M499.5 1066.5L472.5 1039.5M418.5 1066.5L391.5 1039.5M337.5 1066.5L310.5 1039.5L283.5 1039.5L256.5 1039.5L229.5 1039.5L202.5 1012.5M526.5 1066.5L499.5 1039.5L472.5 1012.5L445.5 1012.5M580.5 1039.5L553.5 1039.5L526.5 1039.5M823.5 1012.5L796.5 1012.5L769.5 1012.5L742.5 1012.5L715.5 1039.5L688.5 1039.5L661.5 1039.5L634.5 1039.5L607.5 1039.5L580.5 1039.5L553.5 1066.5L526.5 1066.5L499.5 1066.5L472.5 1066.5L445.5 1066.5L418.5 1066.5L391.5 1066.5L364.5 1066.5L337.5 1066.5L310.5 1066.5L283.5 1066.5L256.5 1066.5L229.5 1066.5" stroke="rgba(199, 23, 136, 1)" stroke-width="4.5"></path><path d="M222.75 1066.5 a6.75 6.75 0 1 0 13.5 0 a6.75 6.75 0 1 0 -13.5 0zM465.75 1039.5 a6.75 6.75 0 1 0 13.5 0 a6.75 6.75 0 1 0 -13.5 0zM384.75 1039.5 a6.75 6.75 0 1 0 13.5 0 a6.75 6.75 0 1 0 -13.5 0zM195.75 1012.5 a6.75 6.75 0 1 0 13.5 0 a6.75 6.75 0 1 0 -13.5 0zM438.75 1012.5 a6.75 6.75 0 1 0 13.5 0 a6.75 6.75 0 1 0 -13.5 0zM519.75 1039.5 a6.75 6.75 0 1 0 13.5 0 a6.75 6.75 0 1 0 -13.5 0z" fill="rgba(199, 23, 136, 1)"></path><path d="M823.5 472.5L796.5 472.5L769.5 472.5L742.5 472.5L715.5 472.5" stroke="rgba(119, 95, 202, 1)" stroke-width="4.5"></path><path d="M708.75 472.5 a6.75 6.75 0 1 0 13.5 0 a6.75 6.75 0 1 0 -13.5 0z" fill="rgba(119, 95, 202, 1)"></path><path d="M769.5 1039.5L742.5 1066.5M337.5 1093.5L310.5 1120.5L283.5 1120.5L256.5 1120.5L229.5 1120.5L202.5 1120.5M472.5 1093.5L445.5 1120.5L418.5 1120.5L391.5 1120.5L364.5 1120.5L337.5 1120.5M796.5 1039.5L769.5 1066.5M823.5 1039.5L796.5 1039.5L769.5 1039.5L742.5 1039.5L715.5 1066.5L688.5 1066.5L661.5 1066.5L634.5 1066.5L607.5 1066.5L580.5 1066.5L553.5 1093.5L526.5 1093.5L499.5 1093.5L472.5 1093.5L445.5 1093.5L418.5 1093.5L391.5 1093.5L364.5 1093.5L337.5 1093.5L310.5 1093.5" stroke="#dd1133" stroke-width="4.5"></path><path d="M303.75 1093.5 a6.75 6.75 0 1 0 13.5 0 a6.75 6.75 0 1 0 -13.5 0zM735.75 1066.5 a6.75 6.75 0 1 0 13.5 0 a6.75 6.75 0 1 0 -13.5 0zM195.75 1120.5 a6.75 6.75 0 1 0 13.5 0 a6.75 6.75 0 1 0 -13.5 0zM330.75 1120.5 a6.75 6.75 0 1 0 13.5 0 a6.75 6.75 0 1 0 -13.5 0zM762.75 1066.5 a6.75 6.75 0 1 0 13.5 0 a6.75 6.75 0 1 0 -13.5 0z" fill="#dd1133"></path><path d="M823.5 445.5L796.5 445.5L769.5 445.5L742.5 445.5L715.5 445.5L688.5 445.5" stroke="rgba(199, 23, 136, 1)" stroke-width="4.5"></path><path d="M681.75 445.5 a6.75 6.75 0 1 0 13.5 0 a6.75 6.75 0 1 0 -13.5 0z" fill="rgba(199, 23, 136, 1)"></path><path d="M607.5 445.5L580.5 418.5L553.5 418.5L526.5 418.5M661.5 445.5L634.5 418.5L607.5 418.5M823.5 418.5L796.5 418.5L769.5 418.5L742.5 418.5L715.5 418.5L688.5 418.5L661.5 445.5L634.5 445.5L607.5 445.5L580.5 445.5" stroke="rgba(119, 95, 202, 1)" stroke-width="4.5"></path><path d="M573.75 445.5 a6.75 6.75 0 1 0 13.5 0 a6.75 6.75 0 1 0 -13.5 0zM519.75 418.5 a6.75 6.75 0 1 0 13.5 0 a6.75 6.75 0 1 0 -13.5 0zM600.75 418.5 a6.75 6.75 0 1 0 13.5 0 a6.75 6.75 0 1 0 -13.5 0z" fill="rgba(119, 95, 202, 1)"></path><path d="M310.5 1147.5L283.5 1174.5L256.5 1174.5L229.5 1174.5L202.5 1174.5M634.5 1093.5L607.5 1120.5M715.5 1093.5L688.5 1120.5L661.5 1147.5L634.5 1147.5L607.5 1147.5L580.5 1147.5M364.5 1147.5L337.5 1174.5L310.5 1174.5L283.5 1201.5L256.5 1228.5L229.5 1228.5L202.5 1228.5M499.5 1120.5L472.5 1120.5M823.5 1093.5L796.5 1093.5L769.5 1093.5L742.5 1093.5L715.5 1093.5L688.5 1093.5L661.5 1093.5L634.5 1093.5L607.5 1093.5L580.5 1093.5L553.5 1120.5L526.5 1120.5L499.5 1120.5L472.5 1147.5L445.5 1147.5L418.5 1147.5L391.5 1147.5L364.5 1147.5L337.5 1147.5L310.5 1147.5L283.5 1147.5L256.5 1147.5L229.5 1147.5" stroke="rgba(199, 23, 136, 1)" stroke-width="4.5"></path><path d="M222.75 1147.5 a6.75 6.75 0 1 0 13.5 0 a6.75 6.75 0 1 0 -13.5 0zM195.75 1174.5 a6.75 6.75 0 1 0 13.5 0 a6.75 6.75 0 1 0 -13.5 0zM600.75 1120.5 a6.75 6.75 0 1 0 13.5 0 a6.75 6.75 0 1 0 -13.5 0zM573.75 1147.5 a6.75 6.75 0 1 0 13.5 0 a6.75 6.75 0 1 0 -13.5 0zM195.75 1228.5 a6.75 6.75 0 1 0 13.5 0 a6.75 6.75 0 1 0 -13.5 0zM465.75 1120.5 a6.75 6.75 0 1 0 13.5 0 a6.75 6.75 0 1 0 -13.5 0z" fill="rgba(199, 23, 136, 1)"></path><path d="M580.5 391.5L553.5 364.5L526.5 364.5M499.5 391.5L472.5 391.5M796.5 391.5L769.5 364.5M823.5 391.5L796.5 391.5L769.5 391.5L742.5 391.5L715.5 391.5L688.5 391.5L661.5 391.5L634.5 391.5L607.5 391.5L580.5 391.5L553.5 391.5L526.5 391.5L499.5 391.5L472.5 418.5L445.5 418.5" stroke="rgba(167, 154, 16, 1)" stroke-width="4.5"></path><path d="M438.75 418.5 a6.75 6.75 0 1 0 13.5 0 a6.75 6.75 0 1 0 -13.5 0zM519.75 364.5 a6.75 6.75 0 1 0 13.5 0 a6.75 6.75 0 1 0 -13.5 0zM465.75 391.5 a6.75 6.75 0 1 0 13.5 0 a6.75 6.75 0 1 0 -13.5 0zM762.75 364.5 a6.75 6.75 0 1 0 13.5 0 a6.75 6.75 0 1 0 -13.5 0z" fill="rgba(167, 154, 16, 1)"></path></g></g><defs><mask id="SvgjsMask1254"><rect width="800" height="1500" fill="#ffffff"></rect></mask><mask id="SvgjsMask1255"><rect width="800" height="1500" fill="white"></rect><path d="M658.12 742.5 a3.38 3.38 0 1 0 6.76 0 a3.38 3.38 0 1 0 -6.76 0zM712.12 769.5 a3.38 3.38 0 1 0 6.76 0 a3.38 3.38 0 1 0 -6.76 0zM685.12 796.5 a3.38 3.38 0 1 0 6.76 0 a3.38 3.38 0 1 0 -6.76 0z" fill="black"></path><path d="M199.12 742.5 a3.38 3.38 0 1 0 6.76 0 a3.38 3.38 0 1 0 -6.76 0zM199.12 769.5 a3.38 3.38 0 1 0 6.76 0 a3.38 3.38 0 1 0 -6.76 0zM280.12 715.5 a3.38 3.38 0 1 0 6.76 0 a3.38 3.38 0 1 0 -6.76 0zM253.12 769.5 a3.38 3.38 0 1 0 6.76 0 a3.38 3.38 0 1 0 -6.76 0zM334.12 688.5 a3.38 3.38 0 1 0 6.76 0 a3.38 3.38 0 1 0 -6.76 0zM334.12 769.5 a3.38 3.38 0 1 0 6.76 0 a3.38 3.38 0 1 0 -6.76 0zM442.12 769.5 a3.38 3.38 0 1 0 6.76 0 a3.38 3.38 0 1 0 -6.76 0z" fill="black"></path><path d="M442.12 715.5 a3.38 3.38 0 1 0 6.76 0 a3.38 3.38 0 1 0 -6.76 0zM604.12 661.5 a3.38 3.38 0 1 0 6.76 0 a3.38 3.38 0 1 0 -6.76 0zM631.12 661.5 a3.38 3.38 0 1 0 6.76 0 a3.38 3.38 0 1 0 -6.76 0zM415.12 688.5 a3.38 3.38 0 1 0 6.76 0 a3.38 3.38 0 1 0 -6.76 0z" fill="black"></path><path d="M577.12 904.5 a3.38 3.38 0 1 0 6.76 0 a3.38 3.38 0 1 0 -6.76 0zM550.12 877.5 a3.38 3.38 0 1 0 6.76 0 a3.38 3.38 0 1 0 -6.76 0zM631.12 850.5 a3.38 3.38 0 1 0 6.76 0 a3.38 3.38 0 1 0 -6.76 0zM766.12 850.5 a3.38 3.38 0 1 0 6.76 0 a3.38 3.38 0 1 0 -6.76 0z" fill="black"></path><path d="M415.12 661.5 a3.38 3.38 0 1 0 6.76 0 a3.38 3.38 0 1 0 -6.76 0zM361.12 634.5 a3.38 3.38 0 1 0 6.76 0 a3.38 3.38 0 1 0 -6.76 0zM685.12 661.5 a3.38 3.38 0 1 0 6.76 0 a3.38 3.38 0 1 0 -6.76 0zM523.12 634.5 a3.38 3.38 0 1 0 6.76 0 a3.38 3.38 0 1 0 -6.76 0zM550.12 634.5 a3.38 3.38 0 1 0 6.76 0 a3.38 3.38 0 1 0 -6.76 0z" fill="black"></path><path d="M739.12 634.5 a3.38 3.38 0 1 0 6.76 0 a3.38 3.38 0 1 0 -6.76 0z" fill="black"></path><path d="M469.12 904.5 a3.38 3.38 0 1 0 6.76 0 a3.38 3.38 0 1 0 -6.76 0zM523.12 958.5 a3.38 3.38 0 1 0 6.76 0 a3.38 3.38 0 1 0 -6.76 0zM415.12 877.5 a3.38 3.38 0 1 0 6.76 0 a3.38 3.38 0 1 0 -6.76 0zM658.12 904.5 a3.38 3.38 0 1 0 6.76 0 a3.38 3.38 0 1 0 -6.76 0z" fill="black"></path><path d="M226.12 580.5 a3.38 3.38 0 1 0 6.76 0 a3.38 3.38 0 1 0 -6.76 0zM199.12 607.5 a3.38 3.38 0 1 0 6.76 0 a3.38 3.38 0 1 0 -6.76 0zM253.12 607.5 a3.38 3.38 0 1 0 6.76 0 a3.38 3.38 0 1 0 -6.76 0zM253.12 634.5 a3.38 3.38 0 1 0 6.76 0 a3.38 3.38 0 1 0 -6.76 0zM280.12 553.5 a3.38 3.38 0 1 0 6.76 0 a3.38 3.38 0 1 0 -6.76 0zM496.12 553.5 a3.38 3.38 0 1 0 6.76 0 a3.38 3.38 0 1 0 -6.76 0z" fill="black"></path><path d="M577.12 958.5 a3.38 3.38 0 1 0 6.76 0 a3.38 3.38 0 1 0 -6.76 0zM523.12 985.5 a3.38 3.38 0 1 0 6.76 0 a3.38 3.38 0 1 0 -6.76 0zM604.12 985.5 a3.38 3.38 0 1 0 6.76 0 a3.38 3.38 0 1 0 -6.76 0zM712.12 931.5 a3.38 3.38 0 1 0 6.76 0 a3.38 3.38 0 1 0 -6.76 0z" fill="black"></path><path d="M442.12 553.5 a3.38 3.38 0 1 0 6.76 0 a3.38 3.38 0 1 0 -6.76 0zM577.12 553.5 a3.38 3.38 0 1 0 6.76 0 a3.38 3.38 0 1 0 -6.76 0zM469.12 526.5 a3.38 3.38 0 1 0 6.76 0 a3.38 3.38 0 1 0 -6.76 0zM658.12 553.5 a3.38 3.38 0 1 0 6.76 0 a3.38 3.38 0 1 0 -6.76 0z" fill="black"></path><path d="M712.12 985.5 a3.38 3.38 0 1 0 6.76 0 a3.38 3.38 0 1 0 -6.76 0z" fill="black"></path><path d="M253.12 499.5 a3.38 3.38 0 1 0 6.76 0 a3.38 3.38 0 1 0 -6.76 0zM334.12 526.5 a3.38 3.38 0 1 0 6.76 0 a3.38 3.38 0 1 0 -6.76 0zM604.12 553.5 a3.38 3.38 0 1 0 6.76 0 a3.38 3.38 0 1 0 -6.76 0zM685.12 553.5 a3.38 3.38 0 1 0 6.76 0 a3.38 3.38 0 1 0 -6.76 0zM307.12 472.5 a3.38 3.38 0 1 0 6.76 0 a3.38 3.38 0 1 0 -6.76 0zM253.12 526.5 a3.38 3.38 0 1 0 6.76 0 a3.38 3.38 0 1 0 -6.76 0z" fill="black"></path><path d="M550.12 499.5 a3.38 3.38 0 1 0 6.76 0 a3.38 3.38 0 1 0 -6.76 0zM496.12 445.5 a3.38 3.38 0 1 0 6.76 0 a3.38 3.38 0 1 0 -6.76 0z" fill="black"></path><path d="M658.12 1012.5 a3.38 3.38 0 1 0 6.76 0 a3.38 3.38 0 1 0 -6.76 0z" fill="black"></path><path d="M631.12 472.5 a3.38 3.38 0 1 0 6.76 0 a3.38 3.38 0 1 0 -6.76 0z" fill="black"></path><path d="M226.12 1066.5 a3.38 3.38 0 1 0 6.76 0 a3.38 3.38 0 1 0 -6.76 0zM469.12 1039.5 a3.38 3.38 0 1 0 6.76 0 a3.38 3.38 0 1 0 -6.76 0zM388.12 1039.5 a3.38 3.38 0 1 0 6.76 0 a3.38 3.38 0 1 0 -6.76 0zM199.12 1012.5 a3.38 3.38 0 1 0 6.76 0 a3.38 3.38 0 1 0 -6.76 0zM442.12 1012.5 a3.38 3.38 0 1 0 6.76 0 a3.38 3.38 0 1 0 -6.76 0zM523.12 1039.5 a3.38 3.38 0 1 0 6.76 0 a3.38 3.38 0 1 0 -6.76 0z" fill="black"></path><path d="M712.12 472.5 a3.38 3.38 0 1 0 6.76 0 a3.38 3.38 0 1 0 -6.76 0z" fill="black"></path><path d="M307.12 1093.5 a3.38 3.38 0 1 0 6.76 0 a3.38 3.38 0 1 0 -6.76 0zM739.12 1066.5 a3.38 3.38 0 1 0 6.76 0 a3.38 3.38 0 1 0 -6.76 0zM199.12 1120.5 a3.38 3.38 0 1 0 6.76 0 a3.38 3.38 0 1 0 -6.76 0zM334.12 1120.5 a3.38 3.38 0 1 0 6.76 0 a3.38 3.38 0 1 0 -6.76 0zM766.12 1066.5 a3.38 3.38 0 1 0 6.76 0 a3.38 3.38 0 1 0 -6.76 0z" fill="black"></path><path d="M685.12 445.5 a3.38 3.38 0 1 0 6.76 0 a3.38 3.38 0 1 0 -6.76 0z" fill="black"></path><path d="M577.12 445.5 a3.38 3.38 0 1 0 6.76 0 a3.38 3.38 0 1 0 -6.76 0zM523.12 418.5 a3.38 3.38 0 1 0 6.76 0 a3.38 3.38 0 1 0 -6.76 0zM604.12 418.5 a3.38 3.38 0 1 0 6.76 0 a3.38 3.38 0 1 0 -6.76 0z" fill="black"></path><path d="M226.12 1147.5 a3.38 3.38 0 1 0 6.76 0 a3.38 3.38 0 1 0 -6.76 0zM199.12 1174.5 a3.38 3.38 0 1 0 6.76 0 a3.38 3.38 0 1 0 -6.76 0zM604.12 1120.5 a3.38 3.38 0 1 0 6.76 0 a3.38 3.38 0 1 0 -6.76 0zM577.12 1147.5 a3.38 3.38 0 1 0 6.76 0 a3.38 3.38 0 1 0 -6.76 0zM199.12 1228.5 a3.38 3.38 0 1 0 6.76 0 a3.38 3.38 0 1 0 -6.76 0zM469.12 1120.5 a3.38 3.38 0 1 0 6.76 0 a3.38 3.38 0 1 0 -6.76 0z" fill="black"></path><path d="M442.12 418.5 a3.38 3.38 0 1 0 6.76 0 a3.38 3.38 0 1 0 -6.76 0zM523.12 364.5 a3.38 3.38 0 1 0 6.76 0 a3.38 3.38 0 1 0 -6.76 0zM469.12 391.5 a3.38 3.38 0 1 0 6.76 0 a3.38 3.38 0 1 0 -6.76 0zM766.12 364.5 a3.38 3.38 0 1 0 6.76 0 a3.38 3.38 0 1 0 -6.76 0z" fill="black"></path></mask></defs></svg>